HIERARCHY
ROOT Hips
{
	OFFSET -0.001795 -0.223333 0.028219
	CHANNELS 6 Xposition Yposition Zposition Zrotation Yrotation Xrotation 
	JOINT LeftUpLeg
	{
		OFFSET 0.069520 -0.091406 -0.006815
		CHANNELS 3 Zrotation Yrotation Xrotation
		JOINT LeftLeg
		{
			OFFSET 0.034277 -0.375199 -0.004496
			CHANNELS 3 Zrotation Yrotation Xrotation
			JOINT LeftFoot
			{
				OFFSET -0.013596 -0.397961 -0.043693
				CHANNELS 3 Zrotation Yrotation Xrotation
				JOINT LeftToe
				{
					OFFSET 0.026358 -0.055791 0.119288
					CHANNELS 3 Zrotation Yrotation Xrotation
					End Site
					{
						OFFSET 0.000000 0.000000 0.000000
					}
				}
			}
		}
	}
	JOINT RightUpLeg
	{
		OFFSET -0.067670 -0.090522 -0.004320
		CHANNELS 3 Zrotation Yrotation Xrotation
		JOINT RightLeg
		{
			OFFSET -0.038290 -0.382569 -0.008850
			CHANNELS 3 Zrotation Yrotation Xrotation
			JOINT RightFoot
			{
				OFFSET 0.015774 -0.398415 -0.042312
				CHANNELS 3 Zrotation Yrotation Xrotation
				JOINT RightToe
				{
					OFFSET -0.025372 -0.048144 0.123348
					CHANNELS 3 Zrotation Yrotation Xrotation
					End Site
					{
						OFFSET 0.000000 0.000000 0.000000
					}
				}
			}
		}
	}
	JOINT Spine
	{
		OFFSET -0.002533 0.108963 -0.026696
		CHANNELS 3 Zrotation Yrotation Xrotation
		JOINT Spine1
		{
			OFFSET 0.005487 0.135180 0.001092
			CHANNELS 3 Zrotation Yrotation Xrotation
			JOINT Spine2
			{
				OFFSET 0.001457 0.052922 0.025425
				CHANNELS 3 Zrotation Yrotation Xrotation
				JOINT Neck
				{
					OFFSET -0.002778 0.213870 -0.042857
					CHANNELS 3 Zrotation Yrotation Xrotation
					JOINT Head
					{
						OFFSET 0.005152 0.064970 0.051349
						CHANNELS 3 Zrotation Yrotation Xrotation
						End Site
						{
							OFFSET 0.000000 0.000000 0.000000
						}
					}
				}
				JOINT LeftShoulder
				{
					OFFSET 0.078845 0.121749 -0.034090
					CHANNELS 3 Zrotation Yrotation Xrotation
					JOINT LeftArm
					{
						OFFSET 0.090977 0.030469 -0.008868
						CHANNELS 3 Zrotation Yrotation Xrotation
						JOINT LeftForeArm
						{
							OFFSET 0.259612 -0.012772 -0.027456
							CHANNELS 3 Zrotation Yrotation Xrotation
							JOINT LeftHand
							{
								OFFSET 0.249234 0.008986 -0.001171
								CHANNELS 3 Zrotation Yrotation Xrotation
								End Site
								{
									OFFSET 0.000000 0.000000 0.000000
								}
							}
						}
					}
				}
				JOINT RightShoulder
				{
					OFFSET -0.081759 0.118833 -0.038615
					CHANNELS 3 Zrotation Yrotation Xrotation
					JOINT RightArm
					{
						OFFSET -0.096012 0.032551 -0.009143
						CHANNELS 3 Zrotation Yrotation Xrotation
						JOINT RightForeArm
						{
							OFFSET -0.253742 -0.013329 -0.021401
							CHANNELS 3 Zrotation Yrotation Xrotation
							JOINT RightHand
							{
								OFFSET -0.255298 0.007772 -0.005559
								CHANNELS 3 Zrotation Yrotation Xrotation
								End Site
								{
									OFFSET 0.000000 0.000000 0.000000
								}
							}
						}
					}
				}
			}
		}
	}
}
MOTION
Frames: 12
Frame Time: 0.050000
0.000000 0.938879 0.000000 -1.664988 -3.576596 1.846317 3.109678 0.030059 0.879260 -3.272514 0.390327 -1.708314 -3.034235 -3.201281 6.554873 0.000000 0.000000 0.000000 -11.154817 0.421010 -1.393546 0.785375 0.041173 3.381564 -5.948619 -17.113432 19.621551 0.000000 0.000000 0.000000 -1.412155 -0.180261 7.262466 6.173809 -1.095004 -22.246565 -1.211640 4.543709 17.564375 -1.382698 2.464371 -18.081776 0.000000 0.000000 0.000000 -27.880246 5.765119 -6.837669 -45.892086 -5.098155 -4.617381 -3.271153 -26.506392 1.891577 0.000000 0.000000 0.000000 21.537312 1.963830 0.297852 49.894682 2.834766 -5.284925 -4.496235 22.391331 0.198124 0.000000 0.000000 0.000000 
0.004006 0.938672 0.000996 -1.246538 -4.708251 1.729214 2.064573 0.116104 1.705277 -2.937420 0.370795 -2.692113 -2.600967 -2.401488 6.733838 0.000000 0.000000 0.000000 -11.943561 0.482692 -1.331440 0.392803 0.067289 2.709485 -5.046237 -15.958682 20.149902 0.000000 0.000000 0.000000 -2.049385 -0.141175 8.227298 6.178493 -0.889713 -24.838471 -1.209347 5.767932 19.053885 -2.782325 3.555479 -21.266621 0.000000 0.000000 0.000000 -27.415902 7.466917 -7.956285 -46.095412 -4.338168 -5.010513 -4.194952 -27.142976 2.157033 0.000000 0.000000 0.000000 22.232873 1.523496 0.219327 50.423273 2.512493 -5.675379 -5.381540 23.658276 0.104604 0.000000 0.000000 0.000000 
0.008304 0.938470 0.002084 -0.585810 -4.256228 1.839254 1.042000 0.099624 1.279356 -2.846928 0.355574 -2.254613 -2.812540 -2.743562 6.781514 0.000000 0.000000 0.000000 -13.258106 0.507368 -1.838890 1.335502 -0.020247 3.564478 -5.778461 -17.014259 20.443676 0.000000 0.000000 0.000000 -2.406000 -0.102716 7.844510 5.415883 -0.723344 -24.625258 -1.286512 4.486136 19.079661 -3.813203 4.029502 -20.852146 0.000000 0.000000 0.000000 -27.424453 7.778300 -7.816579 -45.888580 -4.420945 -5.057237 -4.014459 -25.544732 2.034284 0.000000 0.000000 0.000000 23.392400 2.653455 0.549927 49.267197 2.536799 -5.509167 -5.319116 22.281934 0.048245 0.000000 0.000000 0.000000 
0.013020 0.937489 0.003282 -0.424925 -4.727945 1.438988 0.654012 0.147364 1.704948 -3.135760 0.386607 -2.062764 -2.562541 -2.479147 6.394450 0.000000 0.000000 0.000000 -14.391216 0.534703 -2.440292 1.194562 0.038786 4.702994 -3.966897 -14.544658 21.658625 0.000000 0.000000 0.000000 -3.279052 -0.031124 8.419934 6.145742 -0.874719 -24.888440 -1.487004 4.131648 19.097625 -4.447102 4.339541 -21.614973 0.000000 0.000000 0.000000 -28.258043 9.352157 -8.825319 -45.191198 -4.310461 -5.063621 -2.928724 -25.884428 1.858367 0.000000 0.000000 0.000000 23.550328 3.273123 0.724729 48.834644 2.161040 -5.580394 -5.784372 23.431975 -0.060884 0.000000 0.000000 0.000000 
0.018128 0.937135 0.004716 -0.231761 -4.622587 0.784467 0.280815 0.195229 2.120065 -3.437683 0.415745 -1.433401 -2.606323 -2.652158 6.164275 0.000000 0.000000 0.000000 -14.947525 0.526938 -2.342083 1.212277 0.054515 5.244527 -4.187316 -15.082257 23.381531 0.000000 0.000000 0.000000 -3.278318 -0.043276 9.494514 5.720424 -0.770242 -25.049969 -1.554787 4.305776 19.150175 -4.237869 4.255607 -22.100635 0.000000 0.000000 0.000000 -27.888028 9.104896 -8.645460 -44.993682 -3.834692 -5.204073 -2.718429 -25.302546 1.751134 0.000000 0.000000 0.000000 24.132262 2.712571 0.438989 47.775354 2.448941 -5.400942 -5.573932 23.205672 -0.017522 0.000000 0.000000 0.000000 
0.023859 0.936662 0.005993 -0.362168 -4.399101 0.385545 0.181822 0.224298 2.402086 -3.653031 0.437645 -1.049775 -2.667114 -2.894919 5.834010 0.000000 0.000000 0.000000 -15.452674 0.516695 -2.285810 1.441779 0.047099 6.054206 -3.716972 -14.455792 23.974143 0.000000 0.000000 0.000000 -3.726198 -0.006902 10.001842 6.136541 -0.844727 -25.294556 -1.475258 3.938892 19.414853 -3.983492 4.071072 -21.977171 0.000000 0.000000 0.000000 -28.450923 9.590774 -9.009571 -44.216968 -3.752351 -5.184159 -2.300533 -24.680565 1.627799 0.000000 0.000000 0.000000 23.720226 3.039693 0.586461 47.108827 2.647836 -5.270981 -5.935113 23.543771 -0.098181 0.000000 0.000000 0.000000 
0.029819 0.936618 0.007053 -0.596069 -4.738808 -0.034250 -0.204962 0.247874 2.531153 -3.295442 0.397801 -0.301249 -2.408264 -2.597666 5.434680 0.000000 0.000000 0.000000 -15.701402 0.493143 -3.125644 1.561926 0.077754 7.403528 -3.676559 -14.749606 26.178616 0.000000 0.000000 0.000000 -3.638915 -0.019109 10.472042 6.187707 -0.869514 -25.280666 -1.487236 4.039396 19.425754 -3.832990 3.972520 -22.048971 0.000000 0.000000 0.000000 -28.674186 9.695768 -9.086560 -43.247169 -3.472120 -5.185923 -2.276165 -24.377774 1.600462 0.000000 0.000000 0.000000 23.341245 2.978095 0.526958 46.296833 3.131162 -5.013005 -6.204398 24.275034 -0.162758 0.000000 0.000000 0.000000 
0.035660 0.937121 0.007498 -0.964006 -5.097455 -0.296379 -0.552113 0.253460 2.494820 -2.735161 0.328182 0.373712 -2.152818 -2.224928 5.209089 0.000000 0.000000 0.000000 -15.909623 0.474983 -3.913332 1.631816 0.113016 8.610761 -2.938810 -14.056644 27.918441 0.000000 0.000000 0.000000 -3.628163 -0.022121 10.741834 6.464047 -0.938380 -25.355037 -1.316154 4.171180 19.850891 -3.258754 3.615570 -21.652143 0.000000 0.000000 0.000000 -29.089807 9.410829 -8.940836 -42.190299 -3.170597 -5.212266 -2.177434 -24.560182 1.594868 0.000000 0.000000 0.000000 22.823311 2.823863 0.440683 45.581342 3.589543 -4.821178 -6.436812 25.847218 -0.224104 0.000000 0.000000 0.000000 
0.040870 0.937999 0.007232 -1.400146 -5.707733 -0.411199 -0.843420 0.283982 2.712698 -2.105105 0.253526 0.265178 -1.861342 -1.670801 5.281099 0.000000 0.000000 0.000000 -15.750577 0.463674 -4.893134 1.653200 0.155680 9.623941 -2.810888 -14.234864 29.653965 0.000000 0.000000 0.000000 -3.538079 -0.029230 10.656725 6.766420 -1.059322 -24.929771 -1.111502 3.906995 19.878416 -3.097503 3.425879 -21.789971 0.000000 0.000000 0.000000 -29.020118 9.607888 -8.819658 -41.640750 -2.828529 -5.324758 -2.179668 -25.089548 1.662832 0.000000 0.000000 0.000000 22.287287 3.402466 0.603040 44.800703 4.181226 -4.493717 -6.517618 27.659964 -0.305389 0.000000 0.000000 0.000000 
0.045189 0.938580 0.006367 -1.846793 -6.312003 -0.457724 -0.876043 0.278812 2.652911 -1.804703 0.215513 0.467679 -1.558461 -1.131517 5.261392 0.000000 0.000000 0.000000 -15.465485 0.455386 -5.960414 1.485777 0.215679 10.123932 -2.821249 -14.740690 32.672462 0.000000 0.000000 0.000000 -3.577026 -0.021725 10.730570 7.086686 -1.111951 -25.222763 -0.896231 3.786621 20.518593 -2.461213 2.962145 -21.572741 0.000000 0.000000 0.000000 -28.709870 9.428431 -8.413661 -41.206780 -2.685635 -5.439518 -2.474121 -26.155868 1.841642 0.000000 0.000000 0.000000 22.115800 3.490477 0.526583 43.796153 4.324498 -4.377930 -5.719549 29.692788 -0.176510 0.000000 0.000000 0.000000 
0.049066 0.938835 0.005028 -2.257491 -6.867888 -0.408459 -0.662621 0.267854 2.592695 -1.941949 0.236119 0.430804 -1.313447 -0.693698 5.257167 0.000000 0.000000 0.000000 -15.168726 0.475585 -6.221995 1.235946 0.249747 9.677770 -2.482718 -14.589456 33.908998 0.000000 0.000000 0.000000 -3.246096 -0.052991 10.726831 7.165435 -1.154910 -25.046202 -0.597985 3.760906 20.750061 -2.354500 2.845853 -21.755401 0.000000 0.000000 0.000000 -28.373976 9.510909 -8.252938 -40.726450 -2.684880 -5.434862 -2.946952 -26.865937 2.025427 0.000000 0.000000 0.000000 21.919511 3.333864 0.333996 43.760524 4.844301 -4.185095 -5.416033 31.264566 -0.129996 0.000000 0.000000 0.000000 
0.053103 0.938517 0.003372 -2.578748 -7.400008 -0.291642 -0.505093 0.272116 2.661436 -2.167081 0.272956 -0.021144 -1.083739 -0.310998 5.181820 0.000000 0.000000 0.000000 -14.858048 0.493543 -6.672698 0.963214 0.299566 9.548280 -2.486040 -14.777697 34.601645 0.000000 0.000000 0.000000 -3.182899 -0.054725 10.499030 7.415581 -1.273062 -24.500512 -0.492302 3.771300 20.831854 -1.832419 2.458728 -21.175318 0.000000 0.000000 0.000000 -28.075626 9.026034 -7.749336 -40.282555 -2.701554 -5.417431 -3.029434 -27.650323 2.120563 0.000000 0.000000 0.000000 21.926880 3.760767 0.482363 43.515925 4.793942 -4.157902 -4.141033 33.174412 0.182154 0.000000 0.000000 0.000000 
